# xmcd CD database file
#
# Track frame offsets:
#	150
#	12975
#	28450
#	45542
#	65107
#	79972
#	98315
#	111492
#	126840
#	145807
#	161880
#	175057
#
# Disc length: 2534 seconds
#
# Revision: 0
# Processed by: cddbd v1.5.2PL0 Copyright (c) Steve Scherf et al.
# Submitted via: CDex 1.77
#
DISCID=a709e40c
DTITLE=The Nashville All Stars - Country Love Themes
DYEAR=1997
DGENRE=Country
TTITLE0=Blue
TTITLE1=They're playing our song
TTITLE2=Till you love me
TTITLE3=I swear
TTITLE4=The heart won't lie
TTITLE5=This woman and this man
TTITLE6=Without you
TTITLE7=Passionate kisses
TTITLE8=Does he love you
TTITLE9=Constant craving
TTITLE10=XXX and OOO'S
TTITLE11=Third rate romance
EXTD=YEAR: 1997
EXTT0=
EXTT1=
EXTT2=
EXTT3=
EXTT4=
EXTT5=
EXTT6=
EXTT7=
EXTT8=
EXTT9=
EXTT10=
EXTT11=
PLAYORDER=
